<svg width="280" height="56" viewBox="0 0 280 56" fill="none" xmlns="http://www.w3.org/2000/svg">
  <!-- Logo mark -->
  <rect width="56" height="56" rx="14" fill="url(#wmd_bg)"/>
  <g clip-path="url(#wmd_clip)">
    <path d="M20.28 36.34c4.6 4.26 11.78 4 15.98-1.26 4.26-4.6 4-11.78-1.26-15.98-4.6-4.26-11.78-4-15.98 1.26-4.26 4.6-4 11.78 1.26 15.98Z" stroke="url(#wmd_radial)" stroke-width="2.27" stroke-linecap="round" stroke-linejoin="round"/>
    <path d="M31.34 31.1l-.24-6.42-6.43.24" stroke="url(#wmd_lin1)" stroke-width="2.27" stroke-linecap="round" stroke-linejoin="round"/>
    <path d="M24.91 31.34l6.18-6.66" stroke="url(#wmd_lin2)" stroke-width="2.27" stroke-linecap="round" stroke-linejoin="round"/>
  </g>
  <!-- Wordmark -->
  <text x="72" y="37" font-family="'Urbanist', 'Inter', 'Segoe UI', sans-serif" font-size="28" font-weight="600" letter-spacing="-0.02em" fill="#FAFAFA">Vector</text>
  <defs>
    <radialGradient id="wmd_bg" cx="0" cy="0" r="1" gradientUnits="userSpaceOnUse" gradientTransform="translate(55.38 -.00001) rotate(134.657) scale(78.8)">
      <stop stop-color="#191919"/>
      <stop offset="1" stop-color="#0A0A0A"/>
    </radialGradient>
    <radialGradient id="wmd_radial" cx="0" cy="0" r="1" gradientUnits="userSpaceOnUse" gradientTransform="translate(28 28) rotate(132.835) scale(11.35)">
      <stop stop-color="white"/>
      <stop offset="1" stop-color="#44DAFF"/>
    </radialGradient>
    <linearGradient id="wmd_lin1" x1="31.1" y1="24.68" x2="28" y2="28" gradientUnits="userSpaceOnUse">
      <stop stop-color="white"/>
      <stop offset="1" stop-color="#44DAFF"/>
    </linearGradient>
    <linearGradient id="wmd_lin2" x1="31.1" y1="24.84" x2="24.93" y2="31.5" gradientUnits="userSpaceOnUse">
      <stop stop-color="white"/>
      <stop offset="1" stop-color="#44DAFF"/>
    </linearGradient>
    <clipPath id="wmd_clip">
      <rect width="27.26" height="27.26" fill="white" transform="translate(27.28 8.76) rotate(42.84)"/>
    </clipPath>
  </defs>
</svg>
